<svg width="20" height="20" viewBox="0 0 20 20" fill="none" xmlns="http://www.w3.org/2000/svg">
<path d="M17.9549 6.61619C17.7205 6.38185 17.4026 6.25021 17.0712 6.25021C16.7397 6.25021 16.4219 6.38185 16.1874 6.61619L9.99994 12.8037L3.81244 6.61619C3.57669 6.38849 3.26093 6.2625 2.93319 6.26535C2.60544 6.26819 2.29193 6.39966 2.06017 6.63142C1.82841 6.86318 1.69695 7.17669 1.6941 7.50444C1.69125 7.83218 1.81724 8.14794 2.04494 8.38369L9.11619 15.4549C9.3506 15.6893 9.66848 15.8209 9.99994 15.8209C10.3314 15.8209 10.6493 15.6893 10.8837 15.4549L17.9549 8.38369C18.1893 8.14928 18.3209 7.8314 18.3209 7.49994C18.3209 7.16848 18.1893 6.8506 17.9549 6.61619Z" fill="black"/>
</svg>
