<svg width="50" height="40" viewBox="0 0 50 40" fill="none" xmlns="http://www.w3.org/2000/svg">
<path d="M12.1582 0H8.74023C4.43242 0 0.927734 2.80375 0.927734 6.25V33.75C0.927734 37.1963 4.43242 40 8.74023 40H12.1582C16.466 40 19.9707 37.1963 19.9707 33.75V6.25C19.9707 2.80375 16.466 0 12.1582 0ZM16.0645 33.75C16.0645 35.4731 14.3121 36.875 12.1582 36.875H8.74023C6.58633 36.875 4.83398 35.4731 4.83398 33.75V6.25C4.83398 4.52688 6.58633 3.125 8.74023 3.125H12.1582C14.3121 3.125 16.0645 4.52688 16.0645 6.25V33.75Z" fill="#E4E9ED"/>
<path d="M47.1191 27.5C48.1979 27.5 49.0723 26.8005 49.0723 25.9375V6.25C49.0723 2.80375 45.5676 0 41.2598 0H37.9395C33.6316 0 30.127 2.80375 30.127 6.25V33.75C30.127 37.1963 33.6316 40 37.9395 40H41.2598C45.5676 40 49.0723 37.1963 49.0723 33.75C49.0723 32.887 48.1979 32.1875 47.1191 32.1875C46.0404 32.1875 45.166 32.887 45.166 33.75C45.166 35.4731 43.4137 36.875 41.2598 36.875H37.9395C35.7855 36.875 34.0332 35.4731 34.0332 33.75V6.25C34.0332 4.52688 35.7855 3.125 37.9395 3.125H41.2598C43.4137 3.125 45.166 4.52688 45.166 6.25V25.9375C45.166 26.8005 46.0404 27.5 47.1191 27.5Z" fill="#E4E9ED"/>
</svg>
