<svg width="35" height="40" viewBox="0 0 35 40" fill="none" xmlns="http://www.w3.org/2000/svg">
<path d="M31.9514 15.3843L8.32634 0.821429C6.61712 -0.230839 4.55063 -0.274589 2.79836 0.704397C1.0461 1.68323 0 3.46612 0 5.47323V34.4664C0 37.5012 2.44532 39.9835 5.45079 39.9999C5.45899 39.9999 5.4672 40 5.47524 40C6.41446 39.9999 7.39321 39.7055 8.30736 39.1477C9.04275 38.6991 9.27517 37.7392 8.8265 37.0039C8.37783 36.2684 7.41782 36.0361 6.68267 36.4848C6.25509 36.7455 5.83751 36.8805 5.46759 36.8804C4.3336 36.8742 3.11946 35.9028 3.11946 34.4665V5.47331C3.11946 4.61229 3.56821 3.84768 4.31977 3.42776C5.07141 3.00784 5.95774 3.02659 6.69001 3.47745L30.3151 18.0404C31.0252 18.4775 31.4315 19.2065 31.4298 20.0404C31.4281 20.8743 31.0188 21.6016 30.3048 22.0373L13.2238 32.4958C12.4891 32.9456 12.2581 33.9059 12.708 34.6405C13.1578 35.3751 14.118 35.6061 14.8527 35.1562L31.9317 24.699C33.5669 23.7015 34.5455 21.9624 34.5494 20.0467C34.5533 18.1312 33.5818 16.3881 31.9514 15.3843Z" fill="#E4E9ED"/>
</svg>
