<svg width="40" height="40" viewBox="0 0 40 40" fill="none" xmlns="http://www.w3.org/2000/svg">
<path d="M38.4375 27.5C39.3005 27.5 40 26.8005 40 25.9375V6.25C40 2.80375 37.1963 0 33.75 0H6.25C2.80375 0 0 2.80375 0 6.25V33.75C0 37.1963 2.80375 40 6.25 40H33.75C37.1963 40 40 37.1963 40 33.75C40 32.887 39.3005 32.1875 38.4375 32.1875C37.5745 32.1875 36.875 32.887 36.875 33.75C36.875 35.4731 35.4731 36.875 33.75 36.875H6.25C4.52688 36.875 3.125 35.4731 3.125 33.75V6.25C3.125 4.52688 4.52688 3.125 6.25 3.125H33.75C35.4731 3.125 36.875 4.52688 36.875 6.25V25.9375C36.875 26.8005 37.5745 27.5 38.4375 27.5Z" fill="#E4E9ED"/>
<path d="M31.6385 5H8.58473C6.67177 5 5.00049 6.57987 5.00049 8.49331V31.5456C5.00049 33.459 6.67177 35 8.58473 35H31.6385C33.5512 35 34.9998 33.459 34.9998 31.5456V8.49331C34.9998 6.57987 33.5512 5 31.6385 5Z" fill="#E4E9ED"/>
</svg>
