<svg width="175" height="175" viewBox="0 0 175 175" fill="none" xmlns="http://www.w3.org/2000/svg">
<rect width="175" height="175" rx="87.5" fill="#2B3C5B"/>
<path d="M55.1455 90.708C54.7855 91.1774 54.2865 91.5329 53.6484 91.7744C53.0104 92.016 52.2858 92.1367 51.4746 92.1367C50.6406 92.1367 49.9023 91.9476 49.2598 91.5693C48.6172 91.1911 48.1204 90.651 47.7695 89.9492C47.4232 89.2428 47.2432 88.4202 47.2295 87.4814V86.7021C47.2295 85.1982 47.5895 84.0247 48.3096 83.1816C49.0296 82.334 50.0345 81.9102 51.3242 81.9102C52.4316 81.9102 53.3112 82.1836 53.9629 82.7305C54.6146 83.2773 55.0065 84.0658 55.1387 85.0957H53.4434C53.252 83.8971 52.557 83.2979 51.3584 83.2979C50.5837 83.2979 49.9935 83.5781 49.5879 84.1387C49.1868 84.6947 48.9795 85.5127 48.9658 86.5928V87.3584C48.9658 88.4339 49.1914 89.2702 49.6426 89.8672C50.0983 90.4596 50.7295 90.7559 51.5361 90.7559C52.4202 90.7559 53.0492 90.5553 53.4229 90.1543V88.2061H51.3721V86.8936H55.1455V90.708ZM61.3662 91.2754C60.8786 91.8496 60.1859 92.1367 59.2881 92.1367C58.486 92.1367 57.8776 91.902 57.4629 91.4326C57.0527 90.9632 56.8477 90.2842 56.8477 89.3955V84.6035H58.5088V89.375C58.5088 90.3138 58.8984 90.7832 59.6777 90.7832C60.4844 90.7832 61.029 90.4938 61.3115 89.915V84.6035H62.9727V92H61.4072L61.3662 91.2754ZM66.4316 92H64.7705V84.6035H66.4316V92ZM64.668 82.6826C64.668 82.4274 64.7477 82.2155 64.9072 82.0469C65.0713 81.8783 65.3037 81.7939 65.6045 81.7939C65.9053 81.7939 66.1377 81.8783 66.3018 82.0469C66.4658 82.2155 66.5479 82.4274 66.5479 82.6826C66.5479 82.9333 66.4658 83.1429 66.3018 83.3115C66.1377 83.4756 65.9053 83.5576 65.6045 83.5576C65.3037 83.5576 65.0713 83.4756 64.9072 83.3115C64.7477 83.1429 64.668 82.9333 64.668 82.6826ZM70.3281 82.8057V84.6035H71.6338V85.834H70.3281V89.9629C70.3281 90.2454 70.3828 90.4505 70.4922 90.5781C70.6061 90.7012 70.8066 90.7627 71.0938 90.7627C71.2852 90.7627 71.4788 90.7399 71.6748 90.6943V91.9795C71.2965 92.0843 70.932 92.1367 70.5811 92.1367C69.305 92.1367 68.667 91.4326 68.667 90.0244V85.834H67.4502V84.6035H68.667V82.8057H70.3281ZM77.3281 92C77.2552 91.8587 77.1914 91.6286 77.1367 91.3096C76.6081 91.861 75.9609 92.1367 75.1953 92.1367C74.4525 92.1367 73.8464 91.9248 73.377 91.501C72.9076 91.0771 72.6729 90.5531 72.6729 89.9287C72.6729 89.1403 72.9645 88.5365 73.5479 88.1172C74.1357 87.6934 74.9743 87.4814 76.0635 87.4814H77.082V86.9961C77.082 86.6133 76.9749 86.3079 76.7607 86.0801C76.5465 85.8477 76.2207 85.7314 75.7832 85.7314C75.4049 85.7314 75.0951 85.8271 74.8535 86.0186C74.612 86.2054 74.4912 86.4447 74.4912 86.7363H72.8301C72.8301 86.3307 72.9645 85.9525 73.2334 85.6016C73.5023 85.2461 73.8669 84.9681 74.3271 84.7676C74.792 84.5671 75.3092 84.4668 75.8789 84.4668C76.7448 84.4668 77.4352 84.6855 77.9502 85.123C78.4652 85.556 78.7295 86.1667 78.7432 86.9551V90.291C78.7432 90.9564 78.8366 91.4873 79.0234 91.8838V92H77.3281ZM75.5029 90.8037C75.8311 90.8037 76.1387 90.724 76.4258 90.5645C76.7174 90.4049 76.9362 90.1908 77.082 89.9219V88.5273H76.1865C75.5713 88.5273 75.1087 88.6344 74.7988 88.8486C74.4889 89.0628 74.334 89.3659 74.334 89.7578C74.334 90.0768 74.4388 90.332 74.6484 90.5234C74.8626 90.7103 75.1475 90.8037 75.5029 90.8037ZM84.3555 86.1211C84.1367 86.0846 83.9111 86.0664 83.6787 86.0664C82.9176 86.0664 82.4049 86.3581 82.1406 86.9414V92H80.4795V84.6035H82.0654L82.1064 85.4307C82.5075 84.7881 83.0635 84.4668 83.7744 84.4668C84.0114 84.4668 84.2074 84.4987 84.3623 84.5625L84.3555 86.1211ZM96.9541 92H95.2314V87.5771H90.7812V92H89.0518V82.0469H90.7812V86.1895H95.2314V82.0469H96.9541V92ZM98.5332 88.2334C98.5332 87.5088 98.6768 86.8571 98.9639 86.2783C99.251 85.695 99.6543 85.2484 100.174 84.9385C100.693 84.624 101.29 84.4668 101.965 84.4668C102.963 84.4668 103.772 84.7881 104.392 85.4307C105.016 86.0732 105.353 86.9255 105.403 87.9873L105.41 88.377C105.41 89.1061 105.269 89.7578 104.986 90.332C104.708 90.9062 104.307 91.3506 103.783 91.665C103.264 91.9795 102.662 92.1367 101.979 92.1367C100.935 92.1367 100.099 91.7904 99.4697 91.0977C98.8454 90.4004 98.5332 89.473 98.5332 88.3154V88.2334ZM100.194 88.377C100.194 89.138 100.352 89.735 100.666 90.168C100.98 90.5964 101.418 90.8105 101.979 90.8105C102.539 90.8105 102.974 90.5918 103.284 90.1543C103.599 89.7168 103.756 89.0765 103.756 88.2334C103.756 87.486 103.594 86.8936 103.271 86.4561C102.951 86.0186 102.516 85.7998 101.965 85.7998C101.423 85.7998 100.992 86.0163 100.673 86.4492C100.354 86.8776 100.194 87.5202 100.194 88.377ZM111.296 91.2754C110.808 91.8496 110.116 92.1367 109.218 92.1367C108.416 92.1367 107.807 91.902 107.393 91.4326C106.982 90.9632 106.777 90.2842 106.777 89.3955V84.6035H108.438V89.375C108.438 90.3138 108.828 90.7832 109.607 90.7832C110.414 90.7832 110.959 90.4938 111.241 89.915V84.6035H112.902V92H111.337L111.296 91.2754ZM118.74 89.9902C118.74 89.694 118.617 89.4684 118.371 89.3135C118.13 89.1585 117.726 89.0218 117.161 88.9033C116.596 88.7848 116.124 88.6344 115.746 88.4521C114.917 88.0511 114.502 87.4701 114.502 86.709C114.502 86.071 114.771 85.5378 115.309 85.1094C115.846 84.681 116.53 84.4668 117.359 84.4668C118.243 84.4668 118.957 84.6855 119.499 85.123C120.046 85.5605 120.319 86.1279 120.319 86.8252H118.658C118.658 86.5062 118.54 86.2419 118.303 86.0322C118.066 85.818 117.751 85.7109 117.359 85.7109C116.995 85.7109 116.696 85.7952 116.464 85.9639C116.236 86.1325 116.122 86.3581 116.122 86.6406C116.122 86.8958 116.229 87.0941 116.443 87.2354C116.658 87.3766 117.09 87.5202 117.742 87.666C118.394 87.8073 118.904 87.9782 119.273 88.1787C119.647 88.3747 119.923 88.6117 120.101 88.8896C120.283 89.1676 120.374 89.5049 120.374 89.9014C120.374 90.5667 120.098 91.1068 119.547 91.5215C118.995 91.9316 118.273 92.1367 117.38 92.1367C116.774 92.1367 116.234 92.0273 115.76 91.8086C115.286 91.5898 114.917 91.2891 114.652 90.9062C114.388 90.5234 114.256 90.111 114.256 89.6689H115.869C115.892 90.0609 116.04 90.3639 116.313 90.5781C116.587 90.7878 116.949 90.8926 117.4 90.8926C117.838 90.8926 118.171 90.8105 118.398 90.6465C118.626 90.4779 118.74 90.2591 118.74 89.9902ZM125.084 92.1367C124.031 92.1367 123.177 91.8063 122.521 91.1455C121.869 90.4801 121.543 89.596 121.543 88.4932V88.2881C121.543 87.5498 121.684 86.8913 121.967 86.3125C122.254 85.7292 122.655 85.2757 123.17 84.9521C123.685 84.6286 124.259 84.4668 124.893 84.4668C125.9 84.4668 126.677 84.7881 127.224 85.4307C127.775 86.0732 128.051 86.9824 128.051 88.1582V88.8281H123.218C123.268 89.4388 123.471 89.9219 123.826 90.2773C124.186 90.6328 124.637 90.8105 125.18 90.8105C125.941 90.8105 126.561 90.5029 127.039 89.8877L127.935 90.7422C127.638 91.1842 127.242 91.5283 126.745 91.7744C126.253 92.016 125.699 92.1367 125.084 92.1367ZM124.886 85.7998C124.43 85.7998 124.061 85.9593 123.778 86.2783C123.5 86.5973 123.323 87.0417 123.245 87.6113H126.41V87.4883C126.374 86.9323 126.226 86.513 125.966 86.2305C125.706 85.9434 125.346 85.7998 124.886 85.7998Z" fill="#E4E9ED"/>
</svg>
