<svg width="175" height="175" viewBox="0 0 175 175" fill="none" xmlns="http://www.w3.org/2000/svg">
<rect width="175" height="175" rx="87.5" fill="#2B3C5B"/>
<path d="M29.2852 89.4365C29.2852 88.999 29.1302 88.6618 28.8203 88.4248C28.515 88.1878 27.9613 87.9486 27.1592 87.707C26.3571 87.4655 25.7191 87.1966 25.2451 86.9004C24.3382 86.3307 23.8848 85.5879 23.8848 84.6719C23.8848 83.8698 24.2106 83.209 24.8623 82.6895C25.5186 82.1699 26.3685 81.9102 27.4121 81.9102C28.1048 81.9102 28.7223 82.0378 29.2646 82.293C29.807 82.5482 30.2331 82.9128 30.543 83.3867C30.8529 83.8561 31.0078 84.3779 31.0078 84.9521H29.2852C29.2852 84.4326 29.1211 84.027 28.793 83.7354C28.4694 83.4391 28.0046 83.291 27.3984 83.291C26.8333 83.291 26.3936 83.4118 26.0791 83.6533C25.7692 83.8949 25.6143 84.2321 25.6143 84.665C25.6143 85.0296 25.7829 85.335 26.1201 85.5811C26.4574 85.8226 27.0133 86.0596 27.7881 86.292C28.5628 86.5199 29.1849 86.7819 29.6543 87.0781C30.1237 87.3698 30.4678 87.707 30.6865 88.0898C30.9053 88.4681 31.0146 88.9124 31.0146 89.4229C31.0146 90.2523 30.6956 90.9131 30.0576 91.4053C29.4242 91.8929 28.5628 92.1367 27.4736 92.1367C26.7536 92.1367 26.0905 92.0046 25.4844 91.7402C24.8828 91.4714 24.4134 91.1022 24.0762 90.6328C23.7435 90.1634 23.5771 89.6165 23.5771 88.9922H25.3066C25.3066 89.5573 25.4935 89.9948 25.8672 90.3047C26.2409 90.6146 26.7764 90.7695 27.4736 90.7695C28.0752 90.7695 28.5264 90.6488 28.8271 90.4072C29.1325 90.1611 29.2852 89.8376 29.2852 89.4365ZM33.9131 84.6035L33.9609 85.458C34.5078 84.7972 35.2256 84.4668 36.1143 84.4668C37.6546 84.4668 38.4385 85.3486 38.4658 87.1123V92H36.8047V87.208C36.8047 86.7386 36.7021 86.3923 36.4971 86.1689C36.2965 85.9411 35.9661 85.8271 35.5059 85.8271C34.8359 85.8271 34.3369 86.1302 34.0088 86.7363V92H32.3477V84.6035H33.9131ZM44.584 92C44.5111 91.8587 44.4473 91.6286 44.3926 91.3096C43.8639 91.861 43.2168 92.1367 42.4512 92.1367C41.7083 92.1367 41.1022 91.9248 40.6328 91.501C40.1634 91.0771 39.9287 90.5531 39.9287 89.9287C39.9287 89.1403 40.2204 88.5365 40.8037 88.1172C41.3916 87.6934 42.2301 87.4814 43.3193 87.4814H44.3379V86.9961C44.3379 86.6133 44.2308 86.3079 44.0166 86.0801C43.8024 85.8477 43.4766 85.7314 43.0391 85.7314C42.6608 85.7314 42.3509 85.8271 42.1094 86.0186C41.8678 86.2054 41.7471 86.4447 41.7471 86.7363H40.0859C40.0859 86.3307 40.2204 85.9525 40.4893 85.6016C40.7581 85.2461 41.1227 84.9681 41.583 84.7676C42.0479 84.5671 42.5651 84.4668 43.1348 84.4668C44.0007 84.4668 44.6911 84.6855 45.2061 85.123C45.721 85.556 45.9854 86.1667 45.999 86.9551V90.291C45.999 90.9564 46.0924 91.4873 46.2793 91.8838V92H44.584ZM42.7588 90.8037C43.0869 90.8037 43.3945 90.724 43.6816 90.5645C43.9733 90.4049 44.1921 90.1908 44.3379 89.9219V88.5273H43.4424C42.8271 88.5273 42.3646 88.6344 42.0547 88.8486C41.7448 89.0628 41.5898 89.3659 41.5898 89.7578C41.5898 90.0768 41.6947 90.332 41.9043 90.5234C42.1185 90.7103 42.4033 90.8037 42.7588 90.8037ZM50.1416 88.8281L49.4033 89.5869V92H47.7422V81.5H49.4033V87.5566L49.9229 86.9072L51.9668 84.6035H53.9629L51.2148 87.6865L54.2568 92H52.3359L50.1416 88.8281ZM58.1738 92.1367C57.1211 92.1367 56.2666 91.8063 55.6104 91.1455C54.9587 90.4801 54.6328 89.596 54.6328 88.4932V88.2881C54.6328 87.5498 54.7741 86.8913 55.0566 86.3125C55.3438 85.7292 55.7448 85.2757 56.2598 84.9521C56.7747 84.6286 57.349 84.4668 57.9824 84.4668C58.9896 84.4668 59.7666 84.7881 60.3135 85.4307C60.8649 86.0732 61.1406 86.9824 61.1406 88.1582V88.8281H56.3076C56.3577 89.4388 56.5605 89.9219 56.916 90.2773C57.276 90.6328 57.7272 90.8105 58.2695 90.8105C59.0306 90.8105 59.6504 90.5029 60.1289 89.8877L61.0244 90.7422C60.7282 91.1842 60.3317 91.5283 59.835 91.7744C59.3428 92.016 58.7891 92.1367 58.1738 92.1367ZM57.9756 85.7998C57.5199 85.7998 57.1507 85.9593 56.8682 86.2783C56.5902 86.5973 56.4124 87.0417 56.335 87.6113H59.5V87.4883C59.4635 86.9323 59.3154 86.513 59.0557 86.2305C58.7959 85.9434 58.4359 85.7998 57.9756 85.7998ZM74.0264 87.2832C74.0264 88.2585 73.8577 89.1152 73.5205 89.8535C73.1833 90.5872 72.7002 91.1523 72.0713 91.5488C71.4469 91.9408 70.7269 92.1367 69.9111 92.1367C69.1045 92.1367 68.3844 91.9408 67.751 91.5488C67.1221 91.1523 66.6344 90.5895 66.2881 89.8604C65.9463 89.1312 65.7731 88.2904 65.7686 87.3379V86.7773C65.7686 85.8066 65.9395 84.9499 66.2812 84.207C66.6276 83.4642 67.113 82.8968 67.7373 82.5049C68.3662 82.1084 69.0863 81.9102 69.8975 81.9102C70.7087 81.9102 71.4264 82.1061 72.0508 82.498C72.6797 82.8854 73.165 83.446 73.5068 84.1797C73.8486 84.9089 74.0218 85.7588 74.0264 86.7295V87.2832ZM72.2969 86.7637C72.2969 85.6608 72.0872 84.8154 71.668 84.2275C71.2533 83.6396 70.6631 83.3457 69.8975 83.3457C69.1501 83.3457 68.5645 83.6396 68.1406 84.2275C67.7214 84.8109 67.5072 85.638 67.498 86.709V87.2832C67.498 88.377 67.71 89.2223 68.1338 89.8193C68.5622 90.4163 69.1546 90.7148 69.9111 90.7148C70.6768 90.7148 71.2646 90.4232 71.6748 89.8398C72.0895 89.2565 72.2969 88.4043 72.2969 87.2832V86.7637ZM77.1299 84.6035L77.1777 85.458C77.7246 84.7972 78.4424 84.4668 79.3311 84.4668C80.8714 84.4668 81.6553 85.3486 81.6826 87.1123V92H80.0215V87.208C80.0215 86.7386 79.9189 86.3923 79.7139 86.1689C79.5133 85.9411 79.1829 85.8271 78.7227 85.8271C78.0527 85.8271 77.5537 86.1302 77.2256 86.7363V92H75.5645V84.6035H77.1299ZM93.8096 83.4414H90.7061V92H88.9902V83.4414H85.9141V82.0469H93.8096V83.4414ZM96.5986 85.4102C97.141 84.7812 97.8268 84.4668 98.6562 84.4668C100.233 84.4668 101.033 85.3669 101.056 87.167V92H99.3945V87.2285C99.3945 86.7181 99.2829 86.3581 99.0596 86.1484C98.8408 85.9342 98.5173 85.8271 98.0889 85.8271C97.4235 85.8271 96.9268 86.1234 96.5986 86.7158V92H94.9375V81.5H96.5986V85.4102ZM105.998 92.1367C104.945 92.1367 104.091 91.8063 103.435 91.1455C102.783 90.4801 102.457 89.596 102.457 88.4932V88.2881C102.457 87.5498 102.598 86.8913 102.881 86.3125C103.168 85.7292 103.569 85.2757 104.084 84.9521C104.599 84.6286 105.173 84.4668 105.807 84.4668C106.814 84.4668 107.591 84.7881 108.138 85.4307C108.689 86.0732 108.965 86.9824 108.965 88.1582V88.8281H104.132C104.182 89.4388 104.385 89.9219 104.74 90.2773C105.1 90.6328 105.551 90.8105 106.094 90.8105C106.855 90.8105 107.475 90.5029 107.953 89.8877L108.849 90.7422C108.552 91.1842 108.156 91.5283 107.659 91.7744C107.167 92.016 106.613 92.1367 105.998 92.1367ZM105.8 85.7998C105.344 85.7998 104.975 85.9593 104.692 86.2783C104.414 86.5973 104.237 87.0417 104.159 87.6113H107.324V87.4883C107.288 86.9323 107.14 86.513 106.88 86.2305C106.62 85.9434 106.26 85.7998 105.8 85.7998ZM113.907 92V82.0469H117.318C118.444 82.0469 119.301 82.2725 119.889 82.7236C120.477 83.1748 120.771 83.847 120.771 84.7402C120.771 85.196 120.647 85.6061 120.401 85.9707C120.155 86.3353 119.795 86.6178 119.321 86.8184C119.859 86.9642 120.274 87.2399 120.565 87.6455C120.862 88.0465 121.01 88.5296 121.01 89.0947C121.01 90.029 120.709 90.7467 120.107 91.248C119.51 91.7493 118.654 92 117.537 92H113.907ZM115.637 87.5088V90.6191H117.558C118.1 90.6191 118.524 90.4847 118.829 90.2158C119.134 89.9469 119.287 89.5732 119.287 89.0947C119.287 88.0602 118.758 87.5316 117.701 87.5088H115.637ZM115.637 86.2373H117.332C117.87 86.2373 118.289 86.1165 118.59 85.875C118.895 85.6289 119.048 85.2826 119.048 84.8359C119.048 84.3438 118.907 83.9883 118.624 83.7695C118.346 83.5508 117.911 83.4414 117.318 83.4414H115.637V86.2373ZM125.836 92.1367C124.783 92.1367 123.929 91.8063 123.272 91.1455C122.621 90.4801 122.295 89.596 122.295 88.4932V88.2881C122.295 87.5498 122.436 86.8913 122.719 86.3125C123.006 85.7292 123.407 85.2757 123.922 84.9521C124.437 84.6286 125.011 84.4668 125.645 84.4668C126.652 84.4668 127.429 84.7881 127.976 85.4307C128.527 86.0732 128.803 86.9824 128.803 88.1582V88.8281H123.97C124.02 89.4388 124.223 89.9219 124.578 90.2773C124.938 90.6328 125.389 90.8105 125.932 90.8105C126.693 90.8105 127.312 90.5029 127.791 89.8877L128.687 90.7422C128.39 91.1842 127.994 91.5283 127.497 91.7744C127.005 92.016 126.451 92.1367 125.836 92.1367ZM125.638 85.7998C125.182 85.7998 124.813 85.9593 124.53 86.2783C124.252 86.5973 124.075 87.0417 123.997 87.6113H127.162V87.4883C127.126 86.9323 126.978 86.513 126.718 86.2305C126.458 85.9434 126.098 85.7998 125.638 85.7998ZM134.518 92C134.445 91.8587 134.381 91.6286 134.326 91.3096C133.798 91.861 133.15 92.1367 132.385 92.1367C131.642 92.1367 131.036 91.9248 130.566 91.501C130.097 91.0771 129.862 90.5531 129.862 89.9287C129.862 89.1403 130.154 88.5365 130.737 88.1172C131.325 87.6934 132.164 87.4814 133.253 87.4814H134.271V86.9961C134.271 86.6133 134.164 86.3079 133.95 86.0801C133.736 85.8477 133.41 85.7314 132.973 85.7314C132.594 85.7314 132.285 85.8271 132.043 86.0186C131.801 86.2054 131.681 86.4447 131.681 86.7363H130.02C130.02 86.3307 130.154 85.9525 130.423 85.6016C130.692 85.2461 131.056 84.9681 131.517 84.7676C131.981 84.5671 132.499 84.4668 133.068 84.4668C133.934 84.4668 134.625 84.6855 135.14 85.123C135.655 85.556 135.919 86.1667 135.933 86.9551V90.291C135.933 90.9564 136.026 91.4873 136.213 91.8838V92H134.518ZM132.692 90.8037C133.021 90.8037 133.328 90.724 133.615 90.5645C133.907 90.4049 134.126 90.1908 134.271 89.9219V88.5273H133.376C132.761 88.5273 132.298 88.6344 131.988 88.8486C131.678 89.0628 131.523 89.3659 131.523 89.7578C131.523 90.0768 131.628 90.332 131.838 90.5234C132.052 90.7103 132.337 90.8037 132.692 90.8037ZM140.711 90.8105C141.126 90.8105 141.47 90.6898 141.743 90.4482C142.017 90.2067 142.162 89.9082 142.181 89.5527H143.746C143.728 90.013 143.584 90.4437 143.315 90.8447C143.047 91.2412 142.682 91.5557 142.222 91.7881C141.761 92.0205 141.265 92.1367 140.731 92.1367C139.697 92.1367 138.877 91.8018 138.271 91.1318C137.664 90.4619 137.361 89.5368 137.361 88.3564V88.1855C137.361 87.0599 137.662 86.1598 138.264 85.4854C138.865 84.8063 139.686 84.4668 140.725 84.4668C141.604 84.4668 142.32 84.7243 142.871 85.2393C143.427 85.7497 143.719 86.4219 143.746 87.2559H142.181C142.162 86.832 142.017 86.4834 141.743 86.21C141.474 85.9365 141.13 85.7998 140.711 85.7998C140.173 85.7998 139.758 85.9958 139.467 86.3877C139.175 86.7751 139.027 87.3652 139.022 88.1582V88.4248C139.022 89.2269 139.166 89.8262 139.453 90.2227C139.745 90.6146 140.164 90.8105 140.711 90.8105ZM146.638 85.4102C147.18 84.7812 147.866 84.4668 148.695 84.4668C150.272 84.4668 151.072 85.3669 151.095 87.167V92H149.434V87.2285C149.434 86.7181 149.322 86.3581 149.099 86.1484C148.88 85.9342 148.556 85.8271 148.128 85.8271C147.463 85.8271 146.966 86.1234 146.638 86.7158V92H144.977V81.5H146.638V85.4102Z" fill="#E4E9ED"/>
</svg>
