<svg width="175" height="175" viewBox="0 0 175 175" fill="none" xmlns="http://www.w3.org/2000/svg">
<rect width="175" height="175" rx="87.5" fill="#2B3C5B"/>
<path d="M13.0117 92V82.0469H16.4229C17.5485 82.0469 18.4053 82.2725 18.9932 82.7236C19.5811 83.1748 19.875 83.847 19.875 84.7402C19.875 85.196 19.752 85.6061 19.5059 85.9707C19.2598 86.3353 18.8997 86.6178 18.4258 86.8184C18.9635 86.9642 19.3783 87.2399 19.6699 87.6455C19.9661 88.0465 20.1143 88.5296 20.1143 89.0947C20.1143 90.029 19.8135 90.7467 19.2119 91.248C18.6149 91.7493 17.7581 92 16.6416 92H13.0117ZM14.7412 87.5088V90.6191H16.6621C17.2044 90.6191 17.6283 90.4847 17.9336 90.2158C18.2389 89.9469 18.3916 89.5732 18.3916 89.0947C18.3916 88.0602 17.863 87.5316 16.8057 87.5088H14.7412ZM14.7412 86.2373H16.4365C16.9743 86.2373 17.3936 86.1165 17.6943 85.875C17.9997 85.6289 18.1523 85.2826 18.1523 84.8359C18.1523 84.3438 18.0111 83.9883 17.7285 83.7695C17.4505 83.5508 17.0153 83.4414 16.4229 83.4414H14.7412V86.2373ZM25.5557 86.1211C25.3369 86.0846 25.1113 86.0664 24.8789 86.0664C24.1178 86.0664 23.6051 86.3581 23.3408 86.9414V92H21.6797V84.6035H23.2656L23.3066 85.4307C23.7077 84.7881 24.2637 84.4668 24.9746 84.4668C25.2116 84.4668 25.4076 84.4987 25.5625 84.5625L25.5557 86.1211ZM26.0479 88.2334C26.0479 87.5088 26.1914 86.8571 26.4785 86.2783C26.7656 85.695 27.1689 85.2484 27.6885 84.9385C28.208 84.624 28.805 84.4668 29.4795 84.4668C30.4775 84.4668 31.2865 84.7881 31.9062 85.4307C32.5306 86.0732 32.8678 86.9255 32.918 87.9873L32.9248 88.377C32.9248 89.1061 32.7835 89.7578 32.501 90.332C32.223 90.9062 31.8219 91.3506 31.2979 91.665C30.7783 91.9795 30.1768 92.1367 29.4932 92.1367C28.4495 92.1367 27.6133 91.7904 26.9844 91.0977C26.36 90.4004 26.0479 89.473 26.0479 88.3154V88.2334ZM27.709 88.377C27.709 89.138 27.8662 89.735 28.1807 90.168C28.4951 90.5964 28.9326 90.8105 29.4932 90.8105C30.0537 90.8105 30.4889 90.5918 30.7988 90.1543C31.1133 89.7168 31.2705 89.0765 31.2705 88.2334C31.2705 87.486 31.1087 86.8936 30.7852 86.4561C30.4661 86.0186 30.0309 85.7998 29.4795 85.7998C28.9372 85.7998 28.5065 86.0163 28.1875 86.4492C27.8685 86.8776 27.709 87.5202 27.709 88.377ZM34.0186 88.2334C34.0186 87.5088 34.1621 86.8571 34.4492 86.2783C34.7363 85.695 35.1396 85.2484 35.6592 84.9385C36.1787 84.624 36.7757 84.4668 37.4502 84.4668C38.4482 84.4668 39.2572 84.7881 39.877 85.4307C40.5013 86.0732 40.8385 86.9255 40.8887 87.9873L40.8955 88.377C40.8955 89.1061 40.7542 89.7578 40.4717 90.332C40.1937 90.9062 39.7926 91.3506 39.2686 91.665C38.749 91.9795 38.1475 92.1367 37.4639 92.1367C36.4202 92.1367 35.584 91.7904 34.9551 91.0977C34.3307 90.4004 34.0186 89.473 34.0186 88.3154V88.2334ZM35.6797 88.377C35.6797 89.138 35.8369 89.735 36.1514 90.168C36.4658 90.5964 36.9033 90.8105 37.4639 90.8105C38.0244 90.8105 38.4596 90.5918 38.7695 90.1543C39.084 89.7168 39.2412 89.0765 39.2412 88.2334C39.2412 87.486 39.0794 86.8936 38.7559 86.4561C38.4368 86.0186 38.0016 85.7998 37.4502 85.7998C36.9079 85.7998 36.4772 86.0163 36.1582 86.4492C35.8392 86.8776 35.6797 87.5202 35.6797 88.377ZM44.7031 88.8281L43.9648 89.5869V92H42.3037V81.5H43.9648V87.5566L44.4844 86.9072L46.5283 84.6035H48.5244L45.7764 87.6865L48.8184 92H46.8975L44.7031 88.8281ZM51.3818 92H49.7207V81.5H51.3818V92ZM55.7842 89.6211L57.2881 84.6035H59.0586L56.1191 93.1211C55.668 94.3652 54.9023 94.9873 53.8223 94.9873C53.5807 94.9873 53.3141 94.9463 53.0225 94.8643V93.5791L53.3369 93.5996C53.7562 93.5996 54.0706 93.5221 54.2803 93.3672C54.4945 93.2168 54.6631 92.9616 54.7861 92.6016L55.0254 91.9658L52.4277 84.6035H54.2188L55.7842 89.6211ZM61.5605 84.6035L61.6084 85.458C62.1553 84.7972 62.873 84.4668 63.7617 84.4668C65.3021 84.4668 66.0859 85.3486 66.1133 87.1123V92H64.4521V87.208C64.4521 86.7386 64.3496 86.3923 64.1445 86.1689C63.944 85.9411 63.6136 85.8271 63.1533 85.8271C62.4834 85.8271 61.9844 86.1302 61.6562 86.7363V92H59.9951V84.6035H61.5605ZM75.7178 92C75.6449 91.8587 75.5811 91.6286 75.5264 91.3096C74.9977 91.861 74.3506 92.1367 73.585 92.1367C72.8421 92.1367 72.236 91.9248 71.7666 91.501C71.2972 91.0771 71.0625 90.5531 71.0625 89.9287C71.0625 89.1403 71.3542 88.5365 71.9375 88.1172C72.5254 87.6934 73.3639 87.4814 74.4531 87.4814H75.4717V86.9961C75.4717 86.6133 75.3646 86.3079 75.1504 86.0801C74.9362 85.8477 74.6104 85.7314 74.1729 85.7314C73.7946 85.7314 73.4847 85.8271 73.2432 86.0186C73.0016 86.2054 72.8809 86.4447 72.8809 86.7363H71.2197C71.2197 86.3307 71.3542 85.9525 71.623 85.6016C71.8919 85.2461 72.2565 84.9681 72.7168 84.7676C73.1816 84.5671 73.6989 84.4668 74.2686 84.4668C75.1344 84.4668 75.8249 84.6855 76.3398 85.123C76.8548 85.556 77.1191 86.1667 77.1328 86.9551V90.291C77.1328 90.9564 77.2262 91.4873 77.4131 91.8838V92H75.7178ZM73.8926 90.8037C74.2207 90.8037 74.5283 90.724 74.8154 90.5645C75.1071 90.4049 75.3258 90.1908 75.4717 89.9219V88.5273H74.5762C73.9609 88.5273 73.4984 88.6344 73.1885 88.8486C72.8786 89.0628 72.7236 89.3659 72.7236 89.7578C72.7236 90.0768 72.8285 90.332 73.0381 90.5234C73.2523 90.7103 73.5371 90.8037 73.8926 90.8037ZM80.4141 84.6035L80.4619 85.458C81.0088 84.7972 81.7266 84.4668 82.6152 84.4668C84.1556 84.4668 84.9395 85.3486 84.9668 87.1123V92H83.3057V87.208C83.3057 86.7386 83.2031 86.3923 82.998 86.1689C82.7975 85.9411 82.4671 85.8271 82.0068 85.8271C81.3369 85.8271 80.8379 86.1302 80.5098 86.7363V92H78.8486V84.6035H80.4141ZM86.3545 88.2471C86.3545 87.1077 86.6188 86.194 87.1475 85.5059C87.6761 84.8132 88.3848 84.4668 89.2734 84.4668C90.0573 84.4668 90.6908 84.7402 91.1738 85.2871V81.5H92.835V92H91.3311L91.249 91.2344C90.7523 91.8359 90.0892 92.1367 89.2598 92.1367C88.3939 92.1367 87.6921 91.7881 87.1543 91.0908C86.6211 90.3936 86.3545 89.4456 86.3545 88.2471ZM88.0156 88.3906C88.0156 89.1426 88.1592 89.7305 88.4463 90.1543C88.738 90.5736 89.1504 90.7832 89.6836 90.7832C90.3626 90.7832 90.8594 90.4801 91.1738 89.874V86.7158C90.8685 86.1234 90.3763 85.8271 89.6973 85.8271C89.1595 85.8271 88.7448 86.0413 88.4531 86.4697C88.1615 86.8936 88.0156 87.5339 88.0156 88.3906ZM100.136 82.8057V84.6035H101.441V85.834H100.136V89.9629C100.136 90.2454 100.19 90.4505 100.3 90.5781C100.414 90.7012 100.614 90.7627 100.901 90.7627C101.093 90.7627 101.286 90.7399 101.482 90.6943V91.9795C101.104 92.0843 100.74 92.1367 100.389 92.1367C99.1126 92.1367 98.4746 91.4326 98.4746 90.0244V85.834H97.2578V84.6035H98.4746V82.8057H100.136ZM104.354 85.4102C104.896 84.7812 105.582 84.4668 106.411 84.4668C107.988 84.4668 108.788 85.3669 108.811 87.167V92H107.149V87.2285C107.149 86.7181 107.038 86.3581 106.814 86.1484C106.596 85.9342 106.272 85.8271 105.844 85.8271C105.178 85.8271 104.682 86.1234 104.354 86.7158V92H102.692V81.5H104.354V85.4102ZM113.753 92.1367C112.7 92.1367 111.846 91.8063 111.189 91.1455C110.538 90.4801 110.212 89.596 110.212 88.4932V88.2881C110.212 87.5498 110.353 86.8913 110.636 86.3125C110.923 85.7292 111.324 85.2757 111.839 84.9521C112.354 84.6286 112.928 84.4668 113.562 84.4668C114.569 84.4668 115.346 84.7881 115.893 85.4307C116.444 86.0732 116.72 86.9824 116.72 88.1582V88.8281H111.887C111.937 89.4388 112.14 89.9219 112.495 90.2773C112.855 90.6328 113.306 90.8105 113.849 90.8105C114.61 90.8105 115.229 90.5029 115.708 89.8877L116.604 90.7422C116.307 91.1842 115.911 91.5283 115.414 91.7744C114.922 92.016 114.368 92.1367 113.753 92.1367ZM113.555 85.7998C113.099 85.7998 112.73 85.9593 112.447 86.2783C112.169 86.5973 111.992 87.0417 111.914 87.6113H115.079V87.4883C115.043 86.9323 114.895 86.513 114.635 86.2305C114.375 85.9434 114.015 85.7998 113.555 85.7998ZM121.662 92V82.0469H125.073C126.199 82.0469 127.056 82.2725 127.644 82.7236C128.231 83.1748 128.525 83.847 128.525 84.7402C128.525 85.196 128.402 85.6061 128.156 85.9707C127.91 86.3353 127.55 86.6178 127.076 86.8184C127.614 86.9642 128.029 87.2399 128.32 87.6455C128.617 88.0465 128.765 88.5296 128.765 89.0947C128.765 90.029 128.464 90.7467 127.862 91.248C127.265 91.7493 126.409 92 125.292 92H121.662ZM123.392 87.5088V90.6191H125.312C125.855 90.6191 126.279 90.4847 126.584 90.2158C126.889 89.9469 127.042 89.5732 127.042 89.0947C127.042 88.0602 126.513 87.5316 125.456 87.5088H123.392ZM123.392 86.2373H125.087C125.625 86.2373 126.044 86.1165 126.345 85.875C126.65 85.6289 126.803 85.2826 126.803 84.8359C126.803 84.3438 126.661 83.9883 126.379 83.7695C126.101 83.5508 125.666 83.4414 125.073 83.4414H123.392V86.2373ZM134.206 86.1211C133.987 86.0846 133.762 86.0664 133.529 86.0664C132.768 86.0664 132.256 86.3581 131.991 86.9414V92H130.33V84.6035H131.916L131.957 85.4307C132.358 84.7881 132.914 84.4668 133.625 84.4668C133.862 84.4668 134.058 84.4987 134.213 84.5625L134.206 86.1211ZM137.022 92H135.361V84.6035H137.022V92ZM135.259 82.6826C135.259 82.4274 135.339 82.2155 135.498 82.0469C135.662 81.8783 135.895 81.7939 136.195 81.7939C136.496 81.7939 136.729 81.8783 136.893 82.0469C137.057 82.2155 137.139 82.4274 137.139 82.6826C137.139 82.9333 137.057 83.1429 136.893 83.3115C136.729 83.4756 136.496 83.5576 136.195 83.5576C135.895 83.5576 135.662 83.4756 135.498 83.3115C135.339 83.1429 135.259 82.9333 135.259 82.6826ZM138.526 88.2471C138.526 87.1077 138.791 86.194 139.319 85.5059C139.848 84.8132 140.557 84.4668 141.445 84.4668C142.229 84.4668 142.863 84.7402 143.346 85.2871V81.5H145.007V92H143.503L143.421 91.2344C142.924 91.8359 142.261 92.1367 141.432 92.1367C140.566 92.1367 139.864 91.7881 139.326 91.0908C138.793 90.3936 138.526 89.4456 138.526 88.2471ZM140.188 88.3906C140.188 89.1426 140.331 89.7305 140.618 90.1543C140.91 90.5736 141.322 90.7832 141.855 90.7832C142.535 90.7832 143.031 90.4801 143.346 89.874V86.7158C143.04 86.1234 142.548 85.8271 141.869 85.8271C141.331 85.8271 140.917 86.0413 140.625 86.4697C140.333 86.8936 140.188 87.5339 140.188 88.3906ZM146.449 88.2471C146.449 87.0986 146.718 86.1826 147.256 85.499C147.798 84.8109 148.516 84.4668 149.409 84.4668C150.252 84.4668 150.915 84.7607 151.398 85.3486L151.474 84.6035H152.971V91.7744C152.971 92.7451 152.668 93.5107 152.062 94.0713C151.46 94.6318 150.646 94.9121 149.621 94.9121C149.079 94.9121 148.548 94.7982 148.028 94.5703C147.513 94.347 147.121 94.0531 146.853 93.6885L147.639 92.6904C148.149 93.2965 148.778 93.5996 149.525 93.5996C150.077 93.5996 150.512 93.4492 150.831 93.1484C151.15 92.8522 151.31 92.4147 151.31 91.8359V91.3369C150.831 91.8701 150.193 92.1367 149.396 92.1367C148.53 92.1367 147.821 91.7926 147.27 91.1045C146.723 90.4163 146.449 89.4639 146.449 88.2471ZM148.104 88.3906C148.104 89.1335 148.254 89.7191 148.555 90.1475C148.86 90.5713 149.282 90.7832 149.819 90.7832C150.489 90.7832 150.986 90.4961 151.31 89.9219V86.668C150.995 86.1074 150.503 85.8271 149.833 85.8271C149.286 85.8271 148.86 86.0436 148.555 86.4766C148.254 86.9095 148.104 87.5475 148.104 88.3906ZM157.94 92.1367C156.888 92.1367 156.033 91.8063 155.377 91.1455C154.725 90.4801 154.399 89.596 154.399 88.4932V88.2881C154.399 87.5498 154.541 86.8913 154.823 86.3125C155.11 85.7292 155.511 85.2757 156.026 84.9521C156.541 84.6286 157.116 84.4668 157.749 84.4668C158.756 84.4668 159.533 84.7881 160.08 85.4307C160.632 86.0732 160.907 86.9824 160.907 88.1582V88.8281H156.074C156.124 89.4388 156.327 89.9219 156.683 90.2773C157.043 90.6328 157.494 90.8105 158.036 90.8105C158.797 90.8105 159.417 90.5029 159.896 89.8877L160.791 90.7422C160.495 91.1842 160.098 91.5283 159.602 91.7744C159.109 92.016 158.556 92.1367 157.94 92.1367ZM157.742 85.7998C157.286 85.7998 156.917 85.9593 156.635 86.2783C156.357 86.5973 156.179 87.0417 156.102 87.6113H159.267V87.4883C159.23 86.9323 159.082 86.513 158.822 86.2305C158.562 85.9434 158.202 85.7998 157.742 85.7998Z" fill="#E4E9ED"/>
</svg>
