<svg width="42" height="29" viewBox="0 0 42 29" fill="none" xmlns="http://www.w3.org/2000/svg">
<g clip-path="url(#clip0)">
<path d="M38.6729 9.61519L23.9072 0.513363C22.839 -0.144305 21.5474 -0.171649 20.4522 0.440218C19.3571 1.05199 18.7033 2.1663 18.7033 3.42074V21.5415C18.7033 23.4383 20.2316 24.9897 22.11 24.9999C22.1151 24.9999 22.1203 25 22.1253 25C22.7123 24.9999 23.324 24.816 23.8954 24.4673C24.355 24.1869 24.5002 23.587 24.2198 23.1274C23.9394 22.6678 23.3394 22.5225 22.8799 22.803C22.6127 22.9659 22.3517 23.0503 22.1205 23.0502C21.4118 23.0464 20.6529 22.4392 20.6529 21.5415V3.42079C20.6529 2.88265 20.9334 2.40477 21.4031 2.14232C21.8729 1.87987 22.4268 1.89159 22.8845 2.17338L37.6502 11.2752C38.094 11.5484 38.348 12.0041 38.3469 12.5253C38.3458 13.0464 38.09 13.501 37.6438 13.7733L26.9681 20.3098C26.5089 20.591 26.3646 21.1911 26.6458 21.6503C26.9269 22.1095 27.527 22.2538 27.9862 21.9726L38.6606 15.4369C39.6826 14.8134 40.2942 13.7265 40.2967 12.5292C40.2991 11.332 39.6919 10.2425 38.6729 9.61519Z" fill="#2B3C5B"/>
</g>
<g clip-path="url(#clip1)">
<path d="M11.9611 22.1834L24.2215 15.6843C25.1079 15.2137 25.6499 14.3338 25.6715 13.3304C25.6931 12.3271 25.1892 11.4247 24.3238 10.9165L11.8231 3.57605C10.5146 2.80769 8.82521 3.23355 8.05722 4.52525C8.05514 4.52878 8.05303 4.5323 8.05099 4.53577C7.81323 4.94074 7.69236 5.43727 7.70142 5.97264C7.70869 6.40331 8.06369 6.74654 8.49433 6.73925C8.92503 6.73201 9.26826 6.37692 9.26093 5.94635C9.25675 5.69597 9.3043 5.48177 9.39799 5.32229C9.68775 4.83492 10.414 4.55737 11.0333 4.92102L23.534 12.2615C23.9053 12.4795 24.1213 12.8666 24.1121 13.2969C24.1028 13.7273 23.8704 14.1047 23.4906 14.3063L11.2302 20.8055C10.8619 21.001 10.4447 20.9916 10.0856 20.7797C9.72655 20.5679 9.51657 20.2073 9.50948 19.7891L9.32476 9.77655C9.31681 9.34589 8.96126 9.00321 8.53064 9.01117C8.1 9.01909 7.75731 9.37464 7.76526 9.8053L7.94995 19.8167C7.96606 20.7743 8.46812 21.6365 9.29311 22.1232C10.118 22.6099 11.1155 22.6323 11.9611 22.1834Z" fill="#2B3C5B"/>
</g>
<defs>
<clipPath id="clip0">
<rect width="25" height="25" fill="white" transform="translate(17)"/>
</clipPath>
<clipPath id="clip1">
<rect width="20" height="20" fill="white" transform="translate(27.3736 11.1272) rotate(120.422)"/>
</clipPath>
</defs>
</svg>
