<svg width="50" height="50" viewBox="0 0 50 50" fill="none" xmlns="http://www.w3.org/2000/svg">
<path d="M12.1582 0H8.74023C4.43242 0 0.927734 3.50469 0.927734 7.8125V42.1875C0.927734 46.4953 4.43242 50 8.74023 50H12.1582C16.466 50 19.9707 46.4953 19.9707 42.1875V7.8125C19.9707 3.50469 16.466 0 12.1582 0ZM16.0645 42.1875C16.0645 44.3414 14.3121 46.0938 12.1582 46.0938H8.74023C6.58633 46.0938 4.83398 44.3414 4.83398 42.1875V7.8125C4.83398 5.65859 6.58633 3.90625 8.74023 3.90625H12.1582C14.3121 3.90625 16.0645 5.65859 16.0645 7.8125V42.1875Z" fill="#2B3C5B"/>
<path d="M47.1191 34.375C48.1979 34.375 49.0723 33.5006 49.0723 32.4219V7.8125C49.0723 3.50469 45.5676 0 41.2598 0H37.9395C33.6316 0 30.127 3.50469 30.127 7.8125V42.1875C30.127 46.4953 33.6316 50 37.9395 50H41.2598C45.5676 50 49.0723 46.4953 49.0723 42.1875C49.0723 41.1088 48.1979 40.2344 47.1191 40.2344C46.0404 40.2344 45.166 41.1088 45.166 42.1875C45.166 44.3414 43.4137 46.0938 41.2598 46.0938H37.9395C35.7855 46.0938 34.0332 44.3414 34.0332 42.1875V7.8125C34.0332 5.65859 35.7855 3.90625 37.9395 3.90625H41.2598C43.4137 3.90625 45.166 5.65859 45.166 7.8125V32.4219C45.166 33.5006 46.0404 34.375 47.1191 34.375Z" fill="#2B3C5B"/>
</svg>
