<svg width="50" height="50" viewBox="0 0 50 50" fill="none" xmlns="http://www.w3.org/2000/svg">
<g clip-path="url(#clip0)">
<path d="M43.3458 19.2304L13.8145 1.02676C11.678 -0.288579 9.09485 -0.343266 6.90451 0.880466C4.71417 2.104 3.40655 4.33262 3.40655 6.84151V43.083C3.40655 46.8766 6.4632 49.9794 10.22 49.9999C10.2303 49.9999 10.2406 50 10.2506 50C11.4246 49.9999 12.6481 49.6319 13.7908 48.9347C14.71 48.3738 15.0005 47.174 14.4397 46.2549C13.8788 45.3355 12.6788 45.0451 11.7599 45.6059C11.2254 45.9319 10.7034 46.1006 10.241 46.1005C8.82356 46.0928 7.30588 44.8785 7.30588 43.0831V6.84161C7.30588 5.76534 7.86682 4.80958 8.80627 4.28467C9.74582 3.75977 10.8537 3.78321 11.7691 4.34678L41.3005 22.5504C42.1881 23.0969 42.696 24.0082 42.6938 25.0505C42.6917 26.0928 42.1801 27.002 41.2876 27.5466L19.9363 40.6197C19.0179 41.182 18.7292 42.3823 19.2915 43.3006C19.8538 44.2189 21.0541 44.5076 21.9724 43.9453L43.3212 30.8738C45.3652 29.6268 46.5885 27.453 46.5934 25.0583C46.5982 22.664 45.3838 20.4851 43.3458 19.2304Z" fill="#2B3C5B"/>
</g>
<defs>
<clipPath id="clip0">
<rect width="50" height="50" fill="white"/>
</clipPath>
</defs>
</svg>
