<svg width="42" height="29" viewBox="0 0 42 29" fill="none" xmlns="http://www.w3.org/2000/svg">
<g clip-path="url(#clip0)">
<path d="M3.32712 18.7585L18.0928 27.8603C19.161 28.518 20.4526 28.5453 21.5478 27.9334C22.6429 27.3217 23.2967 26.2074 23.2967 24.9529L23.2967 6.83218C23.2967 4.93539 21.7684 3.38398 19.89 3.37372C19.8849 3.37372 19.8797 3.37367 19.8747 3.37367C19.2877 3.37372 18.676 3.55771 18.1046 3.90634C17.645 4.18676 17.4998 4.78667 17.7802 5.24624C18.0606 5.70591 18.6606 5.85112 19.1201 5.5707C19.3873 5.40771 19.6483 5.32339 19.8795 5.32343C20.5882 5.32729 21.3471 5.93442 21.3471 6.83213L21.3471 24.9529C21.3471 25.491 21.0666 25.9689 20.5969 26.2313C20.1271 26.4938 19.5732 26.4821 19.1155 26.2003L4.34978 17.0985C3.90598 16.8252 3.65203 16.3696 3.6531 15.8484C3.65418 15.3273 3.90999 14.8727 4.35623 14.6004L15.0319 8.06382C15.4911 7.78267 15.6354 7.18252 15.3542 6.72339C15.0731 6.26421 14.473 6.11987 14.0138 6.40102L3.33943 12.9368C2.3174 13.5603 1.70578 14.6472 1.70334 15.8445C1.7009 17.0417 2.30813 18.1311 3.32712 18.7585Z" fill="#2B3C5B"/>
</g>
<g clip-path="url(#clip1)">
<path d="M30.0389 6.19022L17.7785 12.6894C16.8921 13.1599 16.3501 14.0398 16.3285 15.0432C16.3069 16.0465 16.8108 16.949 17.6762 17.4571L30.1769 24.7976C31.4854 25.566 33.1748 25.1401 33.9428 23.8484C33.9449 23.8449 33.947 23.8414 33.949 23.8379C34.1868 23.4329 34.3076 22.9364 34.2986 22.401C34.2913 21.9703 33.9363 21.6271 33.5057 21.6344C33.075 21.6416 32.7317 21.9967 32.7391 22.4273C32.7433 22.6777 32.6957 22.8919 32.602 23.0514C32.3123 23.5387 31.586 23.8163 30.9667 23.4526L18.466 16.1122C18.0947 15.8942 17.8787 15.5071 17.8879 15.0767C17.8972 14.6463 18.1296 14.2689 18.5094 14.0674L30.7698 7.56816C31.1381 7.37268 31.5553 7.38205 31.9144 7.59392C32.2735 7.80577 32.4834 8.16639 32.4905 8.58455L32.6752 18.5971C32.6832 19.0278 33.0387 19.3704 33.4694 19.3625C33.9 19.3546 34.2427 18.999 34.2347 18.5684L34.05 8.55699C34.0339 7.59938 33.5319 6.73715 32.7069 6.25045C31.882 5.7638 30.8845 5.74138 30.0389 6.19022Z" fill="#2B3C5B"/>
</g>
<defs>
<clipPath id="clip0">
<rect width="25" height="25" fill="white" transform="translate(25 28.3737) rotate(180)"/>
</clipPath>
<clipPath id="clip1">
<rect width="20" height="20" fill="white" transform="translate(14.6264 17.2465) rotate(-59.5784)"/>
</clipPath>
</defs>
</svg>
